<mxfile host="app.diagrams.net" modified="2022-04-30T20:37:28.789Z" agent="5.0 (X11; Linux x86_64) AppleWebKit/537.36 (KHTML, like Gecko) Chrome/100.0.4896.127 Safari/537.36" etag="Mhtz40SUpr3rkkJPcJbc" version="16.6.1" type="github">
  <diagram id="dHoqGRJLup6LJyI-Ye4J" name="Page-1">
    <mxGraphModel dx="1038" dy="632" grid="1" gridSize="10" guides="1" tooltips="1" connect="1" arrows="1" fold="1" page="1" pageScale="1" pageWidth="850" pageHeight="1100" math="0" shadow="0">
      <root>
        <mxCell id="0" />
        <mxCell id="1" parent="0" />
        <mxCell id="O7jQbNx7mbmvP4g28WaW-12" style="edgeStyle=orthogonalEdgeStyle;rounded=1;orthogonalLoop=1;jettySize=auto;html=1;entryX=0.5;entryY=1;entryDx=0;entryDy=0;entryPerimeter=0;fontSize=14;endArrow=classic;endFill=1;" edge="1" parent="1" source="O7jQbNx7mbmvP4g28WaW-1" target="O7jQbNx7mbmvP4g28WaW-4">
          <mxGeometry relative="1" as="geometry" />
        </mxCell>
        <mxCell id="O7jQbNx7mbmvP4g28WaW-13" value="Authorize" style="edgeLabel;html=1;align=center;verticalAlign=middle;resizable=0;points=[];fontSize=14;" vertex="1" connectable="0" parent="O7jQbNx7mbmvP4g28WaW-12">
          <mxGeometry x="0.1719" y="3" relative="1" as="geometry">
            <mxPoint y="1" as="offset" />
          </mxGeometry>
        </mxCell>
        <mxCell id="O7jQbNx7mbmvP4g28WaW-15" style="edgeStyle=orthogonalEdgeStyle;rounded=1;orthogonalLoop=1;jettySize=auto;html=1;fontSize=14;endArrow=classic;endFill=1;" edge="1" parent="1" source="O7jQbNx7mbmvP4g28WaW-1" target="O7jQbNx7mbmvP4g28WaW-14">
          <mxGeometry relative="1" as="geometry">
            <Array as="points">
              <mxPoint x="235" y="651" />
            </Array>
          </mxGeometry>
        </mxCell>
        <mxCell id="O7jQbNx7mbmvP4g28WaW-16" value="store token" style="edgeLabel;html=1;align=center;verticalAlign=middle;resizable=0;points=[];fontSize=14;" vertex="1" connectable="0" parent="O7jQbNx7mbmvP4g28WaW-15">
          <mxGeometry x="0.0885" y="-1" relative="1" as="geometry">
            <mxPoint as="offset" />
          </mxGeometry>
        </mxCell>
        <mxCell id="O7jQbNx7mbmvP4g28WaW-1" value="&lt;b&gt;get-conductor-token&lt;/b&gt;" style="outlineConnect=0;dashed=0;verticalLabelPosition=bottom;verticalAlign=top;align=center;html=1;shape=mxgraph.aws3.lambda_function;fillColor=#F58534;gradientColor=none;" vertex="1" parent="1">
          <mxGeometry x="200.5" y="390" width="69" height="72" as="geometry" />
        </mxCell>
        <mxCell id="O7jQbNx7mbmvP4g28WaW-3" style="edgeStyle=orthogonalEdgeStyle;orthogonalLoop=1;jettySize=auto;html=1;rounded=1;endArrow=classic;endFill=1;" edge="1" parent="1" source="O7jQbNx7mbmvP4g28WaW-2" target="O7jQbNx7mbmvP4g28WaW-1">
          <mxGeometry relative="1" as="geometry">
            <Array as="points">
              <mxPoint x="69" y="426" />
            </Array>
          </mxGeometry>
        </mxCell>
        <mxCell id="O7jQbNx7mbmvP4g28WaW-18" value="&lt;span style=&quot;box-sizing: border-box ; color: rgb(22 , 25 , 31) ; font-family: &amp;#34;amazon ember&amp;#34; , &amp;#34;helvetica neue&amp;#34; , &amp;#34;roboto&amp;#34; , &amp;#34;arial&amp;#34; , sans-serif ; text-align: left&quot;&gt;rate(1 minute)&lt;/span&gt;" style="edgeLabel;html=1;align=center;verticalAlign=middle;resizable=0;points=[];fontSize=14;" vertex="1" connectable="0" parent="O7jQbNx7mbmvP4g28WaW-3">
          <mxGeometry x="0.0026" relative="1" as="geometry">
            <mxPoint y="1" as="offset" />
          </mxGeometry>
        </mxCell>
        <mxCell id="O7jQbNx7mbmvP4g28WaW-2" value="" style="sketch=0;points=[[0,0,0],[0.25,0,0],[0.5,0,0],[0.75,0,0],[1,0,0],[0,1,0],[0.25,1,0],[0.5,1,0],[0.75,1,0],[1,1,0],[0,0.25,0],[0,0.5,0],[0,0.75,0],[1,0.25,0],[1,0.5,0],[1,0.75,0]];outlineConnect=0;fontColor=#232F3E;gradientColor=#FF4F8B;gradientDirection=north;fillColor=#BC1356;strokeColor=#ffffff;dashed=0;verticalLabelPosition=bottom;verticalAlign=top;align=center;html=1;fontSize=12;fontStyle=0;aspect=fixed;shape=mxgraph.aws4.resourceIcon;resIcon=mxgraph.aws4.eventbridge;movableLabel=1;" vertex="1" parent="1">
          <mxGeometry x="40" y="280" width="78" height="78" as="geometry">
            <mxPoint y="-129" as="offset" />
          </mxGeometry>
        </mxCell>
        <mxCell id="O7jQbNx7mbmvP4g28WaW-4" value="&lt;b&gt;&lt;font style=&quot;font-size: 14px&quot;&gt;Dock API&lt;/font&gt;&lt;/b&gt;" style="sketch=0;html=1;dashed=0;whitespace=wrap;fillColor=#2875E2;strokeColor=#ffffff;points=[[0.005,0.63,0],[0.1,0.2,0],[0.9,0.2,0],[0.5,0,0],[0.995,0.63,0],[0.72,0.99,0],[0.5,1,0],[0.28,0.99,0]];shape=mxgraph.kubernetes.icon;prIcon=api;metaEdit=0;movableLabel=1;" vertex="1" parent="1">
          <mxGeometry x="180" y="100" width="110" height="98" as="geometry">
            <mxPoint x="-5" y="-54" as="offset" />
          </mxGeometry>
        </mxCell>
        <mxCell id="O7jQbNx7mbmvP4g28WaW-14" value="&lt;b&gt;Redis&lt;/b&gt;" style="sketch=0;aspect=fixed;html=1;points=[];align=center;image;fontSize=12;image=img/lib/mscae/Cache_Redis_Product.svg;" vertex="1" parent="1">
          <mxGeometry x="340" y="630" width="50" height="42" as="geometry" />
        </mxCell>
        <mxCell id="O7jQbNx7mbmvP4g28WaW-30" style="edgeStyle=orthogonalEdgeStyle;rounded=1;orthogonalLoop=1;jettySize=auto;html=1;fontSize=14;endArrow=classic;endFill=1;entryX=0.48;entryY=-0.083;entryDx=0;entryDy=0;entryPerimeter=0;exitX=0.145;exitY=0.855;exitDx=0;exitDy=0;exitPerimeter=0;" edge="1" parent="1" source="O7jQbNx7mbmvP4g28WaW-19" target="O7jQbNx7mbmvP4g28WaW-14">
          <mxGeometry relative="1" as="geometry">
            <mxPoint x="380" y="630" as="targetPoint" />
            <Array as="points">
              <mxPoint x="364" y="130" />
            </Array>
          </mxGeometry>
        </mxCell>
        <mxCell id="O7jQbNx7mbmvP4g28WaW-31" value="fetch token" style="edgeLabel;html=1;align=center;verticalAlign=middle;resizable=0;points=[];fontSize=14;" vertex="1" connectable="0" parent="O7jQbNx7mbmvP4g28WaW-30">
          <mxGeometry x="0.2703" y="4" relative="1" as="geometry">
            <mxPoint y="1" as="offset" />
          </mxGeometry>
        </mxCell>
        <mxCell id="O7jQbNx7mbmvP4g28WaW-36" style="edgeStyle=orthogonalEdgeStyle;orthogonalLoop=1;jettySize=auto;html=1;entryX=0.9;entryY=0.2;entryDx=0;entryDy=0;entryPerimeter=0;fontSize=14;endArrow=classic;endFill=1;strokeColor=default;exitX=0;exitY=0.5;exitDx=0;exitDy=0;exitPerimeter=0;rounded=1;" edge="1" parent="1" source="O7jQbNx7mbmvP4g28WaW-19" target="O7jQbNx7mbmvP4g28WaW-4">
          <mxGeometry relative="1" as="geometry">
            <mxPoint x="450" y="70" as="sourcePoint" />
            <Array as="points">
              <mxPoint x="450" y="90" />
              <mxPoint x="279" y="90" />
            </Array>
          </mxGeometry>
        </mxCell>
        <mxCell id="O7jQbNx7mbmvP4g28WaW-37" value="cancel account" style="edgeLabel;html=1;align=center;verticalAlign=middle;resizable=0;points=[];fontSize=14;" vertex="1" connectable="0" parent="O7jQbNx7mbmvP4g28WaW-36">
          <mxGeometry x="-0.1673" y="-1" relative="1" as="geometry">
            <mxPoint as="offset" />
          </mxGeometry>
        </mxCell>
        <mxCell id="O7jQbNx7mbmvP4g28WaW-19" value="conductor-accounts-cancellation" style="outlineConnect=0;dashed=0;verticalLabelPosition=bottom;verticalAlign=top;align=center;html=1;shape=mxgraph.aws3.lambda_function;fillColor=#F58534;gradientColor=none;fontSize=14;" vertex="1" parent="1">
          <mxGeometry x="450" y="68" width="69" height="72" as="geometry" />
        </mxCell>
        <mxCell id="O7jQbNx7mbmvP4g28WaW-25" style="edgeStyle=orthogonalEdgeStyle;rounded=1;orthogonalLoop=1;jettySize=auto;html=1;fontSize=12;endArrow=classic;endFill=1;" edge="1" parent="1" source="O7jQbNx7mbmvP4g28WaW-21">
          <mxGeometry relative="1" as="geometry">
            <mxPoint x="480" y="160" as="targetPoint" />
          </mxGeometry>
        </mxCell>
        <mxCell id="O7jQbNx7mbmvP4g28WaW-26" value="triggers" style="edgeLabel;html=1;align=center;verticalAlign=middle;resizable=0;points=[];fontSize=14;" vertex="1" connectable="0" parent="O7jQbNx7mbmvP4g28WaW-25">
          <mxGeometry x="0.4241" y="-1" relative="1" as="geometry">
            <mxPoint y="1" as="offset" />
          </mxGeometry>
        </mxCell>
        <mxCell id="O7jQbNx7mbmvP4g28WaW-21" value="" style="outlineConnect=0;dashed=0;verticalLabelPosition=bottom;verticalAlign=top;align=center;html=1;shape=mxgraph.aws3.queue;fillColor=#D9A741;gradientColor=none;fontSize=14;" vertex="1" parent="1">
          <mxGeometry x="510" y="264" width="73.5" height="48" as="geometry" />
        </mxCell>
        <mxCell id="O7jQbNx7mbmvP4g28WaW-27" style="rounded=1;orthogonalLoop=1;jettySize=auto;html=1;fontSize=14;endArrow=classic;endFill=1;" edge="1" parent="1" source="O7jQbNx7mbmvP4g28WaW-20">
          <mxGeometry relative="1" as="geometry">
            <mxPoint x="580" y="288" as="targetPoint" />
          </mxGeometry>
        </mxCell>
        <mxCell id="O7jQbNx7mbmvP4g28WaW-28" value="populate" style="edgeLabel;html=1;align=center;verticalAlign=middle;resizable=0;points=[];fontSize=14;" vertex="1" connectable="0" parent="O7jQbNx7mbmvP4g28WaW-27">
          <mxGeometry x="-0.1115" y="2" relative="1" as="geometry">
            <mxPoint as="offset" />
          </mxGeometry>
        </mxCell>
        <mxCell id="O7jQbNx7mbmvP4g28WaW-23" style="edgeStyle=orthogonalEdgeStyle;rounded=1;orthogonalLoop=1;jettySize=auto;html=1;fontSize=12;endArrow=classic;endFill=1;" edge="1" parent="1" source="O7jQbNx7mbmvP4g28WaW-20" target="O7jQbNx7mbmvP4g28WaW-22">
          <mxGeometry relative="1" as="geometry">
            <mxPoint x="780" y="190" as="targetPoint" />
          </mxGeometry>
        </mxCell>
        <mxCell id="O7jQbNx7mbmvP4g28WaW-29" value="parse" style="edgeLabel;html=1;align=center;verticalAlign=middle;resizable=0;points=[];fontSize=14;" vertex="1" connectable="0" parent="O7jQbNx7mbmvP4g28WaW-23">
          <mxGeometry x="0.0167" y="1" relative="1" as="geometry">
            <mxPoint y="1" as="offset" />
          </mxGeometry>
        </mxCell>
        <mxCell id="O7jQbNx7mbmvP4g28WaW-20" value="&lt;h3 class=&quot;awsui-util-pt-n&quot; style=&quot;font-family: &amp;#34;amazon ember&amp;#34; , &amp;#34;helvetica neue&amp;#34; , &amp;#34;roboto&amp;#34; , &amp;#34;arial&amp;#34; , sans-serif ; color: rgb(22 , 25 , 31) ; margin: 0px ; padding: 0px 0px 0.5rem ; line-height: 2rem ; box-sizing: border-box ; word-break: break-all ; overflow-wrap: break-word ; text-align: left ; background-color: rgb(255 , 255 , 255)&quot;&gt;&lt;font style=&quot;font-size: 12px&quot;&gt;conductor-enqueue-accounts-to-cancel&lt;/font&gt;&lt;/h3&gt;" style="outlineConnect=0;dashed=0;verticalLabelPosition=bottom;verticalAlign=top;align=center;html=1;shape=mxgraph.aws3.lambda_function;fillColor=#F58534;gradientColor=none;fontSize=14;movableLabel=1;labelPadding=3;allowArrows=0;metaEdit=1;overflow=block;" vertex="1" parent="1">
          <mxGeometry x="747.75" y="253" width="64.5" height="70" as="geometry">
            <mxPoint x="-52" y="-9" as="offset" />
          </mxGeometry>
        </mxCell>
        <mxCell id="O7jQbNx7mbmvP4g28WaW-22" value="S3: CSV file" style="sketch=0;outlineConnect=0;fontColor=#232F3E;gradientColor=none;strokeColor=#ffffff;fillColor=#232F3E;dashed=0;verticalLabelPosition=middle;verticalAlign=bottom;align=center;html=1;whiteSpace=wrap;fontSize=10;fontStyle=1;spacing=3;shape=mxgraph.aws4.productIcon;prIcon=mxgraph.aws4.s3;" vertex="1" parent="1">
          <mxGeometry x="740" y="60" width="80" height="100" as="geometry" />
        </mxCell>
      </root>
    </mxGraphModel>
  </diagram>
</mxfile>
